<?xml version="1.0" encoding="UTF-8" standalone="no"?>
<!DOCTYPE svg PUBLIC "-//W3C//DTD SVG 1.1//EN" "http://www.w3.org/Graphics/SVG/1.1/DTD/svg11.dtd">
<svg width="100%" height="100%" viewBox="0 0 115 89" version="1.1" xmlns="http://www.w3.org/2000/svg" xmlns:xlink="http://www.w3.org/1999/xlink" xml:space="preserve" xmlns:serif="http://www.serif.com/" style="fill-rule:evenodd;clip-rule:evenodd;stroke-linejoin:round;stroke-miterlimit:2;">
    <g transform="matrix(1,0,0,1,-2.93673,-2)">
        <g>
            <g>
                <path d="M22.7,17.8L83.2,2L93.8,41.3L117,35.3L94.8,64.5L94.6,64.6C94.6,64.6 92.6,65.2 91.9,64.8C91.3,64.4 92.6,61.8 93.4,60.1C94.1,58.3 95.5,54.1 96.7,51.7C97.9,49.3 99.7,47.4 100.1,47.2C100.6,47 100.8,45.4 100.7,44.6C100.5,43.9 100.7,43 100,43C99.3,43 98.7,45.2 97.7,46.5C96.7,47.8 94.4,52.2 92.4,56.2C90.5,60.2 86.7,64.8 84.8,66.7C82.8,68.3 84.4,65.2 84.6,64.3C84.8,63.4 86,60.8 86,60.8C86,60.8 87.7,59 85.5,59.6C83.4,60.2 81.4,63.4 81.4,63.4C81.4,63.4 76.1,70 74.3,71.2C72.5,72.5 72.9,70.5 73.3,68.4C73.7,66.4 76,64 76,64L76.9,63.6C76.9,63.6 76.3,65.6 76.8,65.5C77.3,65.4 77.8,64.6 77.9,63.8C78,63 77.9,60 77.3,60.4C76.7,60.8 73.8,63.4 72.9,64.6C72,65.7 68.7,69.9 67.5,71.8C66.3,73.7 67.1,70.8 67.1,70.8C67.1,70.8 67.6,69.1 67.7,68.4C67.8,67.7 66.8,68 66.8,68L65.4,69.4C65.4,69.4 65.1,69.7 65.1,70.8C65.1,71.9 63.7,73.5 62.3,74.3C60.9,75.1 61.5,73.6 61.5,73.6C61.5,73.6 62,71.7 63.3,69.4C64.7,67.1 66.2,66.9 67,66.5C67.8,66.1 67.5,65.6 67.2,65.1C66.9,64.6 66,65 65.7,65.2C65.1,65.7 54.8,74.3 54.3,75.8C53.9,77.3 55.3,76.2 55.3,76.2L59.4,71.8L59.6,71.6L59.5,72.6C59.5,72.6 58.3,74.7 58.6,76.2C58.9,77.4 59.8,77.1 60.4,77.1C61,77 62.3,75.2 63.2,74.5C64,73.9 64.1,74.6 64.4,75.1C64.7,75.7 65.9,74.9 65.9,74.9C65.9,74.9 68.7,71.1 69.3,70.3C69.9,69.5 70.8,69.5 70.8,69.5C70.8,69.5 70.4,70.6 71.4,72.1C72.3,73.6 74,72.5 75,71.8C76,71.2 79.2,67.1 80,66.1C80.7,65.1 81.8,64.9 81.8,64.9C81.8,64.9 81.2,68.1 81.4,69C81.6,69.8 83,70 84.6,68.4C86.3,66.8 89.7,61.7 89.7,61.7C89.7,61.7 88.8,64.2 89.1,66.2C89.4,68.1 91,67.6 91.7,67.4C92.3,67 92.9,66.7 93.5,66.4L74.6,91L48.9,79.7C49.7,77.2 52.6,68.7 52.7,68.4C55.5,67.5 58.3,66.6 58.3,66.6C58.6,65.9 58.9,65 59.5,63.9C60.1,62.8 58.6,63 58.6,63C58.6,63 56.1,65 55,65.4C53.5,66.2 54.1,64.5 54.1,64.5C54.1,64.5 56.3,60 57,58.1C57.7,56.3 59.8,56.3 61.5,55.5C63.2,54.8 74.8,51.1 76.8,50.4C78.8,49.7 78.4,46.7 78.4,46.7C78.4,46.7 76.3,47.8 74.7,48.3C73.1,48.8 62.3,52.9 61.1,53.6C59.9,54.2 60.5,53.1 60.5,52.3C60.5,51.4 59.9,51.8 59.9,51.8C59.9,51.8 58.4,52.5 57.5,52.8C56.5,53 55.9,54.8 55.9,54.8C55.9,54.8 46.2,59.2 44.2,61.6C42.1,64 45.4,62.9 45.4,62.9C45.4,62.9 54.7,57.4 54,58.7C53.3,60 50.1,67.5 50.1,67.5C50.1,67.5 47,69.6 45.9,70.4C44.8,71.3 45.3,73 45.3,73C45.3,73 49.7,69.5 49.2,70.6C48.8,71.5 47.4,77 46.9,78.8L10.1,62.7L32.5,56.7L22.7,17.8ZM69.2,62.1C69.2,62.1 71.7,59.2 72,58.2C72.4,57.3 73.9,57.1 73.8,58.2C73.7,59.3 71.2,61.4 71.2,61.4C71.2,61.4 70,62.8 69.4,62.8C68.8,62.8 69.2,62.1 69.2,62.1ZM86.3,57.2C86.3,57.2 85.5,57.3 85.6,56C85.7,54.7 86,54.9 86.7,54.3C87.4,53.7 87.9,53 87.9,54.1C87.9,55.2 87.8,55.8 87.2,56.4C86.7,57.1 86.3,57.2 86.3,57.2Z" style="fill:rgb(223,48,95);"/>
            </g>
            <g>
                <path d="M5.3,38.4L18.8,34.9C21.3,34.3 23.3,34 25,34C26.8,34 28.2,34.2 29.4,34.8C30.6,35.4 31.4,36.2 32,37.4C32.2,37.9 32.4,38.4 32.6,39.1C33.5,43.8 30.2,47.1 22.6,49.1L17.9,50.3L19.4,56.8L10.1,59.2L5.3,38.4ZM59.3,25C59.7,24.8 60,24.6 60.3,24.4C62,23.4 64,22.6 66.4,21.9C67.7,21.6 68.8,21.3 69.8,21.2C70.8,21.1 71.8,21.1 73,21.1C75,21.2 76.7,21.7 78.2,22.5C79.7,23.3 80.8,24.5 81.6,26L81.7,26.1L76.7,27.4L76.7,29.8L82.6,28.3L85.2,39.8L79.3,41.3L78.4,39.4C77.9,40.1 77.3,40.7 76.7,41.2C75.1,42.5 73.1,43.4 70.6,44.1C67,45 63.8,45.1 61.1,44.2C58.4,43.3 56.4,41.7 55.3,39.5L54.7,38.3L54.4,37.2C53.6,33.9 54.3,30.9 56.3,28.2C57,26.9 58,25.9 59.3,25ZM15.7,40.8L16.7,45.4L20.7,44.4C21.9,44.1 22.7,43.6 23.3,42.9C23.9,42.2 24,41.5 23.6,40.7C23,39.6 21.3,39.4 18.5,40.1L15.7,40.8ZM35.2,30.6L44.7,28.1L59.6,46.2L50.4,48.6L48.6,46.1L39.3,48.5L38.9,51.5L29.9,53.8L35.2,30.6ZM40.1,43.9L45.9,42.4L41.3,35.7L40.1,43.9ZM96.2,14.2C100.4,13.1 103.8,13.1 106.6,14.1C107.9,14.6 109.1,15.2 110.2,16.1C110.7,16.5 111.2,17 111.6,17.5C112,18 112.4,18.6 112.7,19.2L113.2,20.2L113.5,21.1C114,23 113.9,25 113.2,27C112.5,29 111.1,30.8 109,32.5C106.9,34.1 104.3,35.4 101.2,36.2C97,37.3 93.5,37.3 90.6,36.3C87.8,35.3 85.8,33.7 84.6,31.4L84.3,30.6L84,29.7L83.7,28.9C83.3,26.9 83.4,24.9 84.1,23.1C84.8,21.3 86.2,19.6 88.2,17.9C90.5,16.2 93.1,15 96.2,14.2ZM97.3,19.3C93.3,20.3 92.1,23.4 93.8,28.4C95.1,30.9 97.1,31.8 100,31C102.3,30.4 103.7,29.2 104.2,27.3C104.7,25.5 104.5,23.6 103.6,21.9C103,20.7 102.2,19.9 101.1,19.4C100.1,19 98.9,18.9 97.3,19.3Z" style="fill:white;fill-rule:nonzero;"/>
                <path d="M10.1,61.5C9.7,61.5 9.2,61.4 8.9,61.2C8.4,60.9 8,60.3 7.8,59.7L3,38.9C2.7,37.6 3.5,36.4 4.7,36.1L18.2,32.6C20.9,31.9 23.1,31.6 25,31.6C27.1,31.6 28.9,31.9 30.4,32.6C31,32.9 31.5,33.2 32,33.6L32.8,30.1C33,29.2 33.7,28.5 34.5,28.3L44,25.8C44.9,25.6 45.8,25.9 46.4,26.6L51.6,32.9C51.9,30.7 52.7,28.5 54.2,26.5C55.1,25.3 56.2,24.2 57.5,23.2C57.7,23 58,22.8 58.3,22.6C58.5,22.4 58.8,22.3 59,22.2C60.9,21.1 63.2,20.2 65.8,19.5C67.2,19.1 68.4,18.9 69.5,18.8C70.6,18.7 71.8,18.6 73.1,18.7C75.4,18.8 77.5,19.4 79.3,20.4C80.3,21 81.2,21.6 81.9,22.4C81.9,22.3 82,22.2 82,22.1C82.8,19.9 84.5,17.8 86.9,15.9C89.2,14.1 92.1,12.7 95.6,11.8C100.2,10.6 104.2,10.6 107.4,11.7C109,12.3 110.4,13.1 111.7,14.1C112.3,14.6 112.9,15.2 113.4,15.8C113.9,16.4 114.4,17.1 114.8,17.9L115.3,18.9C115.4,19 115.4,19.2 115.5,19.3L115.8,20.2L115.8,20.3C116.5,22.7 116.3,25.2 115.5,27.6C114.6,30 113,32.2 110.6,34.2C108.3,36 105.4,37.4 101.9,38.3C97.2,39.5 93.2,39.5 89.9,38.4C88.8,38 87.8,37.5 86.9,36.9L87.4,39.1C87.7,40.4 86.9,41.6 85.7,41.9L79.8,43.4C79.1,43.6 78.4,43.4 77.8,43C76,44.4 73.7,45.5 71,46.2C67.7,47.1 64.6,47.2 61.8,46.7C61.8,46.8 61.8,46.8 61.7,46.9C61.4,47.7 60.8,48.3 60,48.5L50.9,51C49.9,51.2 48.9,50.9 48.4,50.1L47.6,49L41.5,50.6L41.3,52C41.2,53 40.5,53.8 39.5,54L30.5,56.3C29.7,56.5 28.8,56.3 28.2,55.7C27.6,55.1 27.4,54.3 27.5,53.5L28.4,49.5C26.9,50.2 25.2,50.8 23.1,51.4L20.7,52L21.7,56.2C22,57.5 21.2,58.7 20,59.1L10.7,61.5L10.1,61.5ZM8.1,40.1L11.8,56.2L16.4,55L15.4,50.8C15.1,49.5 15.9,48.3 17.1,47.9L21.8,46.7C31,44.3 30.4,40.7 30.1,39.5C30,39.1 29.9,38.7 29.7,38.4C29.3,37.7 28.9,37.2 28.2,36.9C27.4,36.5 26.3,36.3 24.9,36.3L24.8,36.3C23.4,36.3 21.5,36.5 19.3,37.1L8.1,40.1ZM34.9,42.8L33.1,50.7L36.8,49.7L37,48.3C37.1,47.3 37.8,46.5 38.8,46.3L39.5,46.1C39.2,46 38.8,45.8 38.6,45.6C38,45.1 37.7,44.3 37.8,43.5L39,35.3C39.1,34.3 39.9,33.6 40.8,33.3C41.7,33.1 42.7,33.5 43.3,34.3L47.9,41C48.3,41.6 48.4,42.5 48.2,43.2C48.1,43.5 47.9,43.8 47.6,44.1L48,44C49,43.8 50,44.1 50.5,44.9L51.3,46L55.3,45L43.7,30.9L37.1,32.6L35,42.1C35,42.3 34.9,42.6 34.9,42.8ZM57.2,38.4C58.1,40.1 59.5,41.2 61.6,41.9C63.9,42.6 66.6,42.6 69.8,41.8C71.9,41.2 73.7,40.4 75,39.4C75.5,39 76,38.5 76.3,38C76.8,37.3 77.6,37 78.5,37.1C79.3,37.2 80.1,37.7 80.4,38.5L80.4,38.6L82.1,38.2L80.5,31.4L77,32.3C76.3,32.5 75.5,32.3 74.9,31.9C74.3,31.4 74,30.8 74,30L74,27.6C74,26.5 74.7,25.6 75.8,25.3L77.1,25C77,24.9 76.9,24.9 76.8,24.8C75.7,24.2 74.2,23.8 72.6,23.7C71.6,23.6 70.6,23.7 69.8,23.8C68.9,23.9 67.9,24.1 66.7,24.4C64.6,25 62.7,25.7 61.2,26.6C60.9,26.8 60.7,26.9 60.4,27.1C59.4,27.8 58.5,28.6 57.9,29.6C56.3,31.8 55.8,34.1 56.4,36.7L56.6,37.6L57.2,38.4ZM87,30.4C87.9,32 89.4,33.2 91.6,34C94,34.8 97,34.8 100.8,33.8C103.6,33.1 105.9,32 107.7,30.6C109.4,29.3 110.6,27.8 111.1,26.2C111.6,24.6 111.7,23.2 111.3,21.7L111.1,21.1L110.7,20.3C110.4,19.8 110.2,19.4 109.9,19C109.6,18.6 109.3,18.3 108.9,18C108,17.3 107.1,16.8 106,16.4C103.7,15.6 100.6,15.6 97,16.6C94.2,17.3 91.9,18.4 90.1,19.8C88.4,21.1 87.3,22.5 86.7,23.9C86.2,25.3 86.1,26.7 86.4,28.2L86.9,29.7L87,30.4ZM16.7,47.8C16.3,47.8 15.8,47.7 15.5,47.4C14.9,47.1 14.6,46.5 14.4,45.9L13.4,41.3C13.1,40.1 13.9,38.8 15.1,38.5L17.8,37.8C21.9,36.7 24.5,37.4 25.7,39.6C26.5,41.2 26.3,42.9 25.1,44.4C24.2,45.5 22.9,46.3 21.3,46.7L17.3,47.7C17.1,47.8 16.9,47.8 16.7,47.8ZM98.2,33.7C95.4,33.7 93.1,32.3 91.7,29.5C91.7,29.4 91.6,29.3 91.6,29.2C90.4,25.7 90.4,22.9 91.6,20.7C92.6,18.9 94.3,17.6 96.7,17C98.8,16.5 100.6,16.6 102.2,17.3C103.8,18 105,19.2 105.8,20.9C107,23.2 107.2,25.6 106.6,28C106.1,29.9 104.7,32.3 100.7,33.4C99.8,33.6 99,33.7 98.2,33.7ZM96.1,27.5C96.7,28.7 97.5,29.3 99.5,28.7C101.4,28.2 101.8,27.4 102,26.7C102.3,25.4 102.2,24.2 101.6,22.9C101.3,22.2 100.8,21.8 100.3,21.5C99.8,21.3 99,21.2 98,21.5C96.4,21.9 96,22.6 95.9,22.9C95.3,23.9 95.4,25.4 96.1,27.5Z" style="fill:white;fill-rule:nonzero;"/>
            </g>
            <g>
                <path d="M5.6,38.4L19.1,34.9C21.6,34.3 23.6,34 25.3,34C27.1,34 28.5,34.2 29.7,34.8C30.9,35.4 31.7,36.2 32.3,37.4C32.5,37.9 32.7,38.4 32.9,39.1C33.8,43.8 30.5,47.1 22.9,49.1L18.2,50.3L19.7,56.8L10.4,59.2L5.6,38.4ZM16,40.8L17,45.4L21,44.4C22.2,44.1 23,43.6 23.6,42.9C24.2,42.2 24.3,41.5 23.9,40.7C23.3,39.6 21.6,39.4 18.8,40.1L16,40.8ZM35.5,30.6L45,28.1L59.9,46.2L50.7,48.6L48.9,46.1L39.6,48.5L39.2,51.5L30.2,53.8L35.5,30.6ZM40.4,43.9L46.2,42.4L41.6,35.7L40.4,43.9ZM71.2,36.1L70.1,31.6L82.8,28.3L85.4,39.8L79.5,41.3L78.6,39.4C76.9,41.6 74.3,43.2 70.7,44.1C67.1,45 63.9,45.1 61.2,44.2C58.5,43.3 56.5,41.7 55.4,39.5L54.8,38.3L54.5,37.2C53.7,33.9 54.4,30.9 56.4,28.2C57.4,26.8 58.8,25.6 60.5,24.6C62.2,23.6 64.2,22.8 66.6,22.1C67.9,21.8 69,21.5 70,21.4C71,21.3 72,21.3 73.2,21.3C75.2,21.4 76.9,21.9 78.4,22.7C79.9,23.5 81,24.7 81.8,26.2L81.9,26.3L73.1,28.6C72,27 70.2,26.6 67.7,27.2C63.6,28.3 62.5,31.3 64.3,36.5C65.5,38.9 67.7,39.7 70.9,38.8C71.9,38.5 72.8,38.1 73.7,37.4C74.6,36.7 75,36 75.1,35.2L71.2,36.1ZM96.6,14.2C100.8,13.1 104.2,13.1 107,14.1C108.3,14.6 109.5,15.2 110.6,16.1C111.1,16.5 111.6,17 112,17.5C112.4,18 112.8,18.6 113.1,19.2L113.6,20.2L113.9,21.1C114.4,23 114.3,25 113.6,27C112.9,29 111.5,30.8 109.4,32.5C107.3,34.1 104.7,35.4 101.6,36.2C97.4,37.3 93.9,37.3 91,36.3C88.2,35.3 86.2,33.7 85,31.4L84.7,30.6L84.4,29.7L84.1,28.9C83.7,26.9 83.8,24.9 84.5,23.1C85.2,21.3 86.6,19.6 88.6,17.9C90.8,16.2 93.4,15 96.6,14.2ZM97.7,19.3C93.7,20.3 92.5,23.4 94.2,28.4C95.5,30.9 97.5,31.8 100.4,31C102.7,30.4 104.1,29.2 104.6,27.3C105.1,25.5 104.9,23.6 104,21.9C103.4,20.7 102.6,19.9 101.5,19.4C100.5,19 99.2,18.9 97.7,19.3Z" style="fill:rgb(80,97,132);fill-rule:nonzero;"/>
                <path d="M10.1,59.7L5.1,38.1L19,34.5C21.5,33.9 23.6,33.6 25.3,33.6C27.1,33.6 28.6,33.9 29.9,34.4C31.1,35 32.1,35.9 32.7,37.2C32.9,37.6 33.1,38.1 33.2,38.7L35.1,30.4L45,27.8L55.4,40.4C55.3,40.2 55.1,40 55,39.7L54.4,38.4L54.1,37.3C53.3,33.9 54,30.8 56.1,28C57.2,26.6 58.6,25.3 60.3,24.2C62,23.2 64.1,22.3 66.5,21.7C67.8,21.4 68.9,21.1 69.9,21C70.9,20.9 72,20.8 73.2,20.9C75.2,21 77.1,21.5 78.6,22.3C80.1,23.2 81.3,24.4 82.1,26L82.4,26.6L73,28.9L72.8,28.7C71.8,27.3 70.2,26.9 67.8,27.5C66.1,27.9 65,28.7 64.4,29.8C63.6,31.3 63.7,33.4 64.7,36.2C65.8,38.4 67.8,39.1 70.9,38.3C71.8,38.1 72.7,37.6 73.5,36.9C74,36.5 74.4,36 74.6,35.6L70.8,36.6L69.5,31.3L83,27.8L85.8,40.1L79.2,41.8L78.5,40.2C76.8,42.2 74.2,43.7 70.8,44.5C67.1,45.5 63.8,45.5 61,44.6C59.4,44.1 58,43.3 56.9,42.3L60.4,46.6L50.3,49.2L48.5,46.7L40,49L39.6,52L29.7,54.6L31.9,44.9C30.2,46.8 27.3,48.4 23,49.5L18.6,50.6L20.1,57.1L10.1,59.7ZM6.1,38.7L10.7,58.7L19.2,56.5L17.6,50L22.7,48.7C30.2,46.8 33.3,43.7 32.4,39.2C32.3,38.6 32.1,38.1 31.9,37.6C31.4,36.5 30.5,35.7 29.5,35.2C28.4,34.7 27,34.4 25.3,34.4C23.7,34.4 21.6,34.7 19.2,35.3L6.1,38.7ZM35.8,31L30.7,53.5L38.8,51.4L39.2,48.4L49,45.9L50.8,48.4L59.1,46.2L44.8,28.6L35.8,31ZM55.2,38.1L55.8,39.3C56.9,41.4 58.8,43 61.4,43.8C64.1,44.7 67.2,44.6 70.7,43.7C74.2,42.8 76.7,41.3 78.3,39.1L78.7,38.5L79.7,40.7L84.9,39.4L82.5,28.7L70.6,31.8L71.5,35.5L75.7,34.4L75.7,35C75.6,35.9 75.1,36.7 74.2,37.5C73.3,38.2 72.3,38.7 71.2,39C67.8,39.9 65.4,39 64.1,36.4C63,33.4 62.9,31 63.8,29.3C64.5,28 65.8,27 67.7,26.5C70.2,25.8 72.1,26.3 73.4,27.8L81.4,25.7C80.7,24.5 79.7,23.5 78.4,22.7C77,21.9 75.3,21.5 73.4,21.4C72.3,21.3 71.2,21.4 70.3,21.5C69.3,21.6 68.2,21.8 67,22.2C64.7,22.8 62.6,23.6 61,24.6C59.4,25.6 58,26.8 57,28.1C55.1,30.7 54.5,33.6 55.2,36.8L55.2,38.1ZM16.7,45.9L15.5,40.5L18.6,39.7C21.7,38.9 23.5,39.2 24.2,40.5C24.7,41.4 24.5,42.3 23.9,43.1C23.3,43.9 22.3,44.4 21.1,44.7L16.7,45.9ZM16.5,41.1L17.3,44.9L20.9,44C22,43.7 22.8,43.3 23.3,42.6C23.8,42 23.9,41.5 23.5,40.8C22.9,39.6 20.6,40 18.8,40.4L16.5,41.1ZM39.9,44.4L41.2,35.6L41.9,35.4L46.9,42.6L39.9,44.4ZM41.9,36.8L40.9,43.3L45.6,42.1L41.9,36.8ZM95.6,37.4C93.9,37.4 92.3,37.2 90.9,36.7C88,35.7 85.9,33.9 84.7,31.6L84.7,31.5L84.4,30.7L83.8,28.9C83.4,26.8 83.5,24.8 84.2,22.9C84.9,21 86.3,19.2 88.5,17.6C90.6,15.9 93.3,14.7 96.5,13.9C100.7,12.8 104.3,12.8 107.2,13.8C108.6,14.3 109.8,15 110.9,15.9C111.4,16.3 111.9,16.8 112.3,17.3C112.7,17.8 113.1,18.4 113.4,19.1L113.9,20.2L114.2,21.1C114.7,23.1 114.6,25.2 113.9,27.3C113.2,29.4 111.7,31.3 109.6,33C107.5,34.7 104.8,35.9 101.7,36.7C99.5,37.1 97.4,37.4 95.6,37.4ZM85.5,31.2C86.6,33.3 88.5,34.9 91.2,35.9C93.9,36.9 97.4,36.8 101.5,35.8C104.5,35 107.1,33.8 109.1,32.2C111.1,30.6 112.5,28.8 113.1,26.9C113.8,25 113.9,23.1 113.4,21.2L113.1,20.4L112.6,19.4C112.3,18.8 111.9,18.2 111.6,17.8C111.2,17.3 110.8,16.9 110.3,16.5C109.3,15.7 108.1,15 106.8,14.6C104.1,13.6 100.7,13.7 96.6,14.8C93.5,15.6 91,16.8 88.9,18.4C86.9,20 85.6,21.6 84.9,23.4C84.3,25.1 84.1,27 84.5,28.9L85.5,31.2ZM98.5,31.7C96.4,31.7 94.8,30.7 93.8,28.6L93.8,28.5C92.8,25.6 92.8,23.3 93.7,21.6C94.4,20.3 95.7,19.4 97.6,18.9L97.7,19.3L97.6,18.9C99.2,18.5 100.6,18.5 101.7,19.1C102.8,19.6 103.7,20.5 104.4,21.8C105.3,23.7 105.6,25.6 105,27.5C104.5,29.5 103,30.8 100.5,31.5C99.8,31.6 99.1,31.7 98.5,31.7ZM94.6,28.3C95.8,30.6 97.7,31.4 100.4,30.7C102.6,30.1 103.8,29 104.3,27.3C104.8,25.6 104.6,23.8 103.7,22.1C103.2,21 102.4,20.2 101.4,19.8C100.4,19.4 99.2,19.3 97.8,19.7C96.2,20.1 95,20.9 94.4,22C93.6,23.5 93.7,25.6 94.6,28.3Z" style="fill:rgb(80,97,132);fill-rule:nonzero;"/>
            </g>
        </g>
    </g>
</svg>
