<?xml version="1.0" encoding="UTF-8" standalone="no"?>
<!DOCTYPE svg PUBLIC "-//W3C//DTD SVG 1.1//EN" "http://www.w3.org/Graphics/SVG/1.1/DTD/svg11.dtd">
<svg width="100%" height="100%" viewBox="0 0 245 89" version="1.1" xmlns="http://www.w3.org/2000/svg" xmlns:xlink="http://www.w3.org/1999/xlink" xml:space="preserve" xmlns:serif="http://www.serif.com/" style="fill-rule:evenodd;clip-rule:evenodd;stroke-linejoin:round;stroke-miterlimit:2;">
    <g transform="matrix(1,0,0,1,-3.6,-2.10384)">
        <g>
            <g>
                <g transform="matrix(0.9189,-0.3945,0.3945,0.9189,5.8401,68.5276)">
                    <ellipse cx="169.6" cy="20.1" rx="18.1" ry="12.7" style="fill:rgb(232,63,46);"/>
                </g>
                <g>
                    <path d="M142.6,57.4L117,57.5L114.4,64.1L117.2,64.1C117.2,64.1 118.8,64.6 118.1,66.3L108.3,90.8L118,90.8L121.8,81.6L133.5,81.6C133.5,81.6 139.2,81.5 142.4,76L147.7,62.9C147.6,63 149.3,58.5 142.6,57.4ZM136.5,66.8L133.8,73C133.8,73 133.3,74.7 130.6,74.7L124.4,74.5L128.4,64.5L135.2,64.5C135.2,64.4 137.1,64.4 136.5,66.8Z" style="fill:rgb(55,51,121);fill-rule:nonzero;"/>
                </g>
                <g>
                    <path d="M175.5,71L181,57.5L160.7,57.5C160.7,57.5 152.6,58.3 150.4,63.6L146,73.9C146,73.9 143.9,80.7 149.7,81.2L175.9,81.2L178.6,74.7C178.6,74.7 173.7,75.3 175.5,71ZM164.6,74.7L157.5,74.7C157.5,74.7 156,74.5 156.8,72C156.8,72 159,64.4 162.2,64.2L168.4,64.4L164.6,74.7Z" style="fill:rgb(55,51,121);fill-rule:nonzero;"/>
                </g>
                <g>
                    <path d="M210.6,64.5L207,60.6C205.5,59.2 207.1,57.9 207.1,57.9L208.9,56.7L204.4,51.9C190.9,58.7 179.9,66.2 179.9,66.2C177.8,68.7 179.8,71.7 179.8,71.7L188.3,80.6C189.1,83 186.7,83.5 186.7,83.5L180.6,83.4L177.6,90C179.2,90 188.4,89.9 188.4,89.9C196.8,85.7 199.2,82.3 199.2,82.3C200.7,80.2 199.1,78.1 199.1,78.1C198,76.7 199.8,76.1 199.8,76.1C206.8,72.2 210,69.1 210,69.1C211.8,66.9 210.6,64.5 210.6,64.5ZM200.4,68L193.1,72.6C192,73.2 191.3,72.4 191.3,72.4L188.4,69.1C187.6,68.1 188.9,66.7 188.9,66.7L194.5,63.1C197,62.1 198,63.2 198,63.2L200.5,65.6C201.2,66.9 200.4,68 200.4,68Z" style="fill:rgb(55,51,121);fill-rule:nonzero;"/>
                </g>
                <g>
                    <path d="M246.8,65.3C246.8,65.3 239.5,58.1 237.7,57.3C237.7,57.3 233.8,55.5 230,57.4C230,57.4 218.5,63.1 213.2,66.7C213.2,66.7 209.9,69.2 211.1,72.5C211.1,72.5 217.9,80.4 220,81.4C220,81.4 222.6,83.2 227.2,81.9C227.2,81.9 240.3,76.9 246.8,70.7C246.8,70.7 248.7,68.5 246.8,65.3ZM236,70.2C235.9,70.5 229.4,74 229.4,74C227.3,75.1 225.8,74.1 225.8,74.1C224.8,73.5 222.7,71 222.7,71C221.9,70.2 222.8,68.9 222.8,68.9C224.1,67.6 229.7,64.8 229.7,64.8C231,64 233.1,65 233.1,65L236.1,67.7C237.3,68.9 236,70.2 236,70.2Z" style="fill:rgb(55,51,121);fill-rule:nonzero;"/>
                </g>
                <path d="M112.9,57.5L103.2,57.5C103.2,57.5 97.1,72.4 96.5,74.5C96.5,74.5 95.3,78.2 97.1,79.6C97.1,79.6 99,81.5 101.1,81.5L107.8,81.4L110.7,74.7L108.5,74.7C108.5,74.7 106,74.2 107.1,71.8L112.9,57.5Z" style="fill:rgb(232,63,46);fill-rule:nonzero;"/>
                <path d="M108.4,47.8C108.4,47.8 112,46.6 114,48C114,48 116.6,49.6 114.5,52.4C114.5,52.4 112.9,55.1 108.4,55.2C108.4,55.2 104.6,55.7 104.4,52.5C104.4,52.5 104.2,49.3 108.4,47.8Z" style="fill:rgb(232,63,46);fill-rule:nonzero;"/>
                <g>
                    <path d="M95.9,59C95.9,59 94.6,57.6 91.3,57.3L66.7,57.4L64.2,64.2L66.3,64.2C66.3,64.2 68.6,64.2 67.3,67.5L58.2,90.9L67.8,91L71.3,81.4L83.8,81.5C83.8,81.5 87.4,81.9 90.7,77.9C90.7,77.9 95.7,70 97,64.1C96.8,64 98,60.7 95.9,59ZM85.9,66.9C85.9,68.2 83.4,72.9 83.4,72.9C82.2,74.6 80.1,74.6 80.1,74.6L74,74.6L78.2,64.5L84.7,64.5C86.8,64.6 85.9,66.9 85.9,66.9Z" style="fill:rgb(232,63,46);fill-rule:nonzero;"/>
                </g>
                <path d="M58.5,70.8L63.9,57.4L44.5,57.3C41.6,57.3 38.3,58.8 38.3,58.8C34.5,60.6 33.7,63.2 33.7,63.2C32.3,65.4 29.3,73.6 29.3,73.6C27.6,77.7 29.3,79.1 29.3,79.1C30.9,81.4 34.1,81.3 34.1,81.3L59,81.4L61.7,74.8L58.6,74.3C57.1,73.7 58.5,70.8 58.5,70.8ZM47.5,74.5L41,74.6C41,74.6 38.7,74.5 39.7,71.4C39.7,71.4 40.9,67.3 42.2,65.9C42.2,65.9 43,64.3 45.6,64.3L51.3,64.4L47.5,74.5Z" style="fill:rgb(232,63,46);fill-rule:nonzero;"/>
                <path d="M33,57.4L30.1,64.3L22.5,64.3C22.5,64.3 20.4,63.9 19.1,66.8L13.4,81.3L3.6,81.4L13.1,57.3L33,57.4Z" style="fill:rgb(232,63,46);fill-rule:nonzero;"/>
                <path d="M166.8,2.2C166.8,2.2 157.3,5.4 154.1,9.1C154.1,9.1 148.7,13.9 146.9,21.6C146.9,21.6 146.1,28.8 149.6,32.3C149.6,32.3 152.9,36.5 156.1,37.6C156.1,37.6 160.7,39.5 167.5,38.8C167.5,38.8 178.9,37.4 184.8,30.8C184.8,30.8 181.9,36.9 172.8,43.1C172.8,43.1 166.5,47.7 156.5,50C156.5,50 147.3,52.4 139.3,50.4C139.3,50.4 131.1,48.8 127.2,43.9C127.2,43.9 123,39.8 123,33.9C123,33.9 122.5,27.3 127.9,19.9C127.9,19.9 133.4,13.1 139,9.8C139,9.8 146.2,5.7 151.7,4.1C151.6,4 158.9,1.6 166.8,2.2Z" style="fill:rgb(55,51,121);fill-rule:nonzero;"/>
            </g>
        </g>
    </g>
</svg>
